<svg width="92" height="31" viewBox="0 0 92 31" fill="none" xmlns="http://www.w3.org/2000/svg">
<path d="M31 0H0V31H31V0Z" fill="white" fill-opacity="0.01"/>
<path d="M21.9583 3.875H9.04167C6.18819 3.875 3.875 6.18819 3.875 9.04167V21.9583C3.875 24.8118 6.18819 27.125 9.04167 27.125H21.9583C24.8118 27.125 27.125 24.8118 27.125 21.9583V9.04167C27.125 6.18819 24.8118 3.875 21.9583 3.875Z" fill="white"/>
<path d="M15.4997 20.6663C18.3532 20.6663 20.6663 18.3532 20.6663 15.4997C20.6663 12.6462 18.3532 10.333 15.4997 10.333C12.6462 10.333 10.333 12.6462 10.333 15.4997C10.333 18.3532 12.6462 20.6663 15.4997 20.6663Z" fill="white" stroke="#333333" stroke-width="1.9375" stroke-linejoin="round"/>
<path d="M22.6042 9.68783C23.3176 9.68783 23.8958 9.10955 23.8958 8.39616C23.8958 7.68277 23.3176 7.10449 22.6042 7.10449C21.8908 7.10449 21.3125 7.68277 21.3125 8.39616C21.3125 9.10955 21.8908 9.68783 22.6042 9.68783Z" fill="#333333"/>
<path d="M92 0H61V31H92V0Z" fill="white" fill-opacity="0.01"/>
<path d="M64 23.5756C65.2457 24.2643 74.2632 29.4624 80.6754 25.4561C87.0874 21.4498 86.7337 14.5475 86.7337 11.3847C87.3146 10.1678 88.5417 9.54918 88.5417 6.25537C87.3363 7.36879 86.1383 7.74763 84.9476 7.39191C83.781 5.61326 82.176 4.82657 80.1325 5.03186C77.0673 5.3398 75.9459 8.34703 76.2759 12.2377C71.5497 14.6277 67.8437 10.5051 65.9337 7.39191C65.2956 9.84368 64.6803 12.7872 65.9337 16.0434C66.7694 18.2142 68.7782 20.0495 71.9602 21.5492C68.7354 23.297 66.0821 23.9724 64 23.5756Z" fill="white"/>
</svg>
