<svg width="25" height="22" viewBox="0 0 25 22" fill="none" xmlns="http://www.w3.org/2000/svg">
<path d="M0 18.5756C1.24572 19.2643 10.2632 24.4624 16.6754 20.4561C23.0874 16.4498 22.7337 9.54755 22.7337 6.38471C23.3146 5.16783 24.5417 4.54918 24.5417 1.25537C23.3363 2.36879 22.1383 2.74763 20.9476 2.39191C19.781 0.613263 18.176 -0.173427 16.1325 0.0318639C13.0673 0.339797 11.9459 3.34703 12.2759 7.23766C7.54973 9.62769 3.84368 5.50508 1.93374 2.39191C1.29559 4.84368 0.680256 7.7872 1.93374 11.0434C2.7694 13.2142 4.7782 15.0495 7.96015 16.5492C4.73544 18.297 2.08205 18.9724 0 18.5756Z" fill="white"/>
</svg>
